<svg xmlns="http://www.w3.org/2000/svg" viewBox="0 0 593.57 914.65">><path fill="#ffffff" opacity="1.000000" stroke="none" class="cls-1" d="M436.5,497.45c14.4,2.92,28.48,5.32,42.83,2.64,64.26-12,80.63-79.35,52.92-120.23-9.81-14.47-23.89-24-39.36-31.56-14.27-7-29.61-10.89-44.63-15.75-26.18-8.47-50.06-20.88-68.89-41.6-17.87-19.67-27-43.12-30.29-69.22-2.29-18,.61-35.56,3.24-53.19a156,156,0,0,0,2.11-23.26q-.1-60.68,0-121.34c0-7,.19-13.94.21-20.92,0-1.61.34-3,2.13-3s2.18,1.32,2.38,2.9q4.53,35.49,9.13,71Q373.42,114,378.54,154a48.8,48.8,0,0,0,1.68,8.62q1.83-21.49,3.67-43,1.28-14.82,2.58-29.65c.13-1.48,0-3.42,2.18-3.43,2.3,0,2.26,1.87,2.37,3.59,2.62,41,8.9,81.44,17,121.64a145.88,145.88,0,0,0,11.63,34.07c6.21,13,16.47,22.54,27.05,31.94,16.19,14.39,35.51,23.09,55.06,31.46,17.2,7.36,33.82,15.65,48.47,27.49,25.23,20.39,38.93,47,42.22,79,3.77,36.75-1.9,72.06-18.07,105.42-13.49,27.85-33.52,50.1-58.85,67.71-17.45,12.14-35,24.18-51.67,37.37-23.54,18.6-40.53,42.41-55.43,68-15.53,26.63-26.35,55-31.25,85.55a242.68,242.68,0,0,0,.61,79A290.17,290.17,0,0,0,391.66,911c1.07,2.89.54,3.57-2.52,3.56q-57.12-.12-114.22-.08c-1,0-2.33.56-2.92-.59s.75-1.78,1.45-2.49c35.77-35.84,61.24-77.67,73.49-127.1,9.39-37.88,9.61-76,2.1-114.18-.33-1.65-.34-3-3-2.21-17.77,5.4-36,6.14-54.39,4.88-20.28-1.4-40.19-6.17-60.44-7.46-28.24-1.8-54.87,4.15-79,19.54-.6.38-1.16.82-1.75,1.21s-1.14,1-1.84.32c-.48-.47-.27-1.1-.07-1.66.57-1.67,1.21-3.32,1.74-5,10.71-34.68,30.31-64,54.54-90.55a118.75,118.75,0,0,1,18.25-16.74c1.79-1.28,3-1.43,4.92-.08,22.44,15.9,47.23,26.17,74.56,29.59,32.26,4,63.39.13,91.28-17.67,26.51-16.93,40.09-42.12,42.91-73.3C437.13,506.52,436.54,502.07,436.5,497.45Z"/><path fill="#ffffff" opacity="1.000000" stroke="none"  class="cls-1" d="M114.87,318.89c5.42-.81,10.84-1.7,16.28-2.4a488.41,488.41,0,0,1,87-3.39C273,315.82,325.92,327,376.64,348.18c19.75,8.26,39,17.6,56,30.77,15.7,12.15,24.71,28.94,30.77,47.43,6.92,21.09,5.25,42.12-1,63.07-.71,2.36-2,2.35-3.95,2.15a88.69,88.69,0,0,1-44.32-17c-15.24-11.13-30.62-22.08-47.14-31.39C326.71,420.54,283.72,405,239.1,393.68a7.18,7.18,0,0,1-5-3.86c-20.49-36.89-51.22-59.8-92.87-67.59-4.4-.83-8.89-1.27-13.35-1.68s-8.68-.52-13-.77Z"/><path fill="#ffffff" opacity="1.000000" stroke="none"  class="cls-1" d="M0,407.21c7.29-3.29,14.89-5.26,22.51-7.12a404.86,404.86,0,0,1,88.29-11.57c41.24-.83,82.12,2.33,122.43,11.28a452.48,452.48,0,0,1,170.26,77c7.64,5.57,15.18,11.26,22.86,16.77a6.67,6.67,0,0,1,3,5.58c2.09,35.21-19.37,70-52.77,85.4a104,104,0,0,1-25.86,8.25c-2.59.45-3.58-.31-4.57-2.72-29-70.59-76.77-124.21-144.9-159A247.9,247.9,0,0,0,77.46,403.76c-24.65.92-49.3,2.29-73.95,3.44C2.34,407.26,1.17,407.21,0,407.21Z"/><path fill="#ffffff" opacity="1.000000" stroke="none" class="cls-1" d="M105.91,409.42a305.86,305.86,0,0,1,52.18,13.2c31.8,10.91,62.16,25.05,87.75,47C284.45,502.8,317,541,335.92,589.17c.26.66.5,1.33.8,2,.75,1.65.69,2.51-1.58,2.57-29.33.76-57.7-3-83.76-17.65-12.26-6.87-22.58-16.31-32.58-26-42.59-41.32-79-87.69-111-137.56C107.32,411.71,106.85,410.93,105.91,409.42Z"/><path fill="#ffffff" opacity="1.000000" stroke="none"  class="cls-1" d="M449.06,321.43c-21-3.6-39.13-12.63-53.89-28.13a27.92,27.92,0,0,1-3.68-5.18c-2.34-3.94-1.79-6.14,1.83-8.23,3.89-2.25,6.29-1.38,8.81,2.13,12.34,17.22,27.32,31.25,47.69,38.58C450,321.29,449.78,321.58,449.06,321.43Z"/><path fill="#ffffff" opacity="1.000000" stroke="none"  class="cls-1" d="M371.7,225a5.67,5.67,0,0,1-5.42-5.82,5.49,5.49,0,0,1,5.91-5.21,5.57,5.57,0,0,1,5.29,5.53A5.82,5.82,0,0,1,371.7,225Z"/>
<path fill="#ffffff" opacity="1.000000" stroke="none"  class="cls-1" d="M449.06,321.43l.76-.83a3,3,0,0,1,2.36,1.12A2.81,2.81,0,0,1,449.06,321.43Z"/></svg>