<svg version="1.1" id="Layer_1" xmlns="http://www.w3.org/2000/svg" xmlns:xlink="http://www.w3.org/1999/xlink" x="0px" y="0px"
	 width="100%" viewBox="0 0 2332 1199" enable-background="new 0 0 2332 1199" xml:space="preserve">

<path fill="currentColor" opacity="1.000000" stroke="none" 
	d="
M1683.000000,575.000000 
	C1663.000610,575.000000 1643.499390,575.139709 1624.003296,574.888672 
	C1619.833984,574.834961 1618.893677,575.865479 1618.897705,580.010437 
	C1619.022583,709.006287 1618.966187,838.002380 1619.127075,966.998108 
	C1619.133301,972.010254 1617.982300,973.144836 1612.989258,973.128662 
	C1551.991699,972.930847 1490.993286,972.951599 1429.995483,973.106079 
	C1425.822021,973.116638 1424.898193,972.115601 1424.899780,967.983032 
	C1425.009888,672.658936 1425.009888,377.334839 1424.898926,82.010727 
	C1424.897461,77.866890 1425.839722,76.884163 1430.001709,76.894547 
	C1491.332764,77.047661 1552.664429,77.047470 1613.995483,76.894836 
	C1618.152588,76.884499 1619.107910,77.858543 1619.103027,82.008095 
	C1618.973145,190.837891 1619.030884,299.667877 1618.891357,408.497650 
	C1618.885498,413.029602 1619.995850,414.112976 1624.510132,414.107330 
	C1734.839844,413.969971 1845.169800,413.969452 1955.499512,414.108917 
	C1960.035278,414.114655 1961.112793,412.998596 1961.107056,408.488037 
	C1960.969604,299.824890 1961.031128,191.161530 1960.890747,82.498428 
	C1960.884766,77.957878 1962.007324,76.879654 1966.514160,76.891251 
	C2029.011841,77.052017 2091.510010,77.047424 2154.007812,76.893608 
	C2158.187256,76.883324 2159.101562,77.893799 2159.100098,82.020393 
	C2158.990234,377.344513 2158.990234,672.668640 2159.101562,967.992737 
	C2159.103027,972.143066 2158.150146,973.115051 2153.994629,973.105042 
	C2091.330078,972.953613 2028.665283,972.953247 1966.000977,973.105469 
	C1961.837646,973.115540 1960.893799,972.131470 1960.897827,967.988464 
	C1961.022461,838.825928 1960.973755,709.663269 1961.108398,580.500732 
	C1961.113159,575.965698 1959.999756,574.885132 1955.488403,574.892273 
	C1864.825684,575.036316 1774.162842,575.000000 1683.000000,575.000000 
z"/>
<path fill="currentColor" opacity="1.000000" stroke="none" 
	d="
M773.000000,790.000000 
	C758.333801,790.000000 744.161987,790.222046 730.004639,789.868958 
	C725.573120,789.758423 724.121094,791.858154 722.990234,795.324646 
	C719.857361,804.927673 716.694824,814.521851 713.436340,824.082886 
	C700.976990,860.640747 688.625488,897.236511 675.903931,933.703064 
	C671.732056,945.661926 667.640564,957.640503 663.761536,969.693848 
	C662.997253,972.068787 661.997070,973.145630 659.077698,973.108215 
	C641.914429,972.888123 624.746826,973.000000 607.580688,973.000000 
	C557.916870,973.000000 508.253113,973.000000 458.329956,973.000000 
	C467.987701,945.711548 477.583130,918.576111 487.194977,891.446472 
	C498.161652,860.492798 509.105988,829.531128 520.129700,798.597778 
	C528.519348,775.055786 537.031677,751.557495 545.464600,728.030945 
	C558.489807,691.692871 571.558228,655.370056 584.487427,618.997803 
	C595.754639,587.300842 606.593628,555.449341 618.105408,523.842285 
	C628.632263,494.939758 638.746277,465.894348 649.119629,436.940521 
	C659.493408,407.985413 669.781067,379.000793 680.116272,350.032715 
	C690.451538,321.064514 700.813660,292.106567 711.088684,263.116211 
	C721.416748,233.976486 731.925476,204.901779 742.195557,175.739517 
	C750.388733,152.474686 759.018311,129.359375 767.041016,106.028488 
	C770.009216,97.396606 773.283813,88.870155 776.261230,80.241302 
	C777.105652,77.793869 778.175720,76.881409 780.994995,76.904922 
	C801.992859,77.080048 822.992920,77.000000 843.992249,77.000000 
	C894.157349,77.000000 944.322510,77.010056 994.487610,76.970741 
	C997.037292,76.968742 998.693054,76.998093 999.799866,80.202423 
	C1011.879761,115.178024 1024.268066,150.046936 1036.476318,184.978455 
	C1046.414429,213.413803 1055.930176,242.000275 1066.171265,270.325165 
	C1076.033447,297.602142 1085.657715,324.957245 1095.173340,352.354370 
	C1095.741333,353.990173 1095.985474,355.483368 1095.985596,357.087769 
	C1096.000610,551.248413 1095.999878,745.409058 1095.999756,939.569702 
	C1095.999756,940.223572 1095.999634,940.877441 1095.999634,942.268921 
	C1092.753906,938.919922 1092.393555,934.920532 1091.309204,931.486206 
	C1085.178955,912.070435 1079.411255,892.540161 1073.517334,873.049744 
	C1065.580200,846.801880 1057.576904,820.573669 1049.773438,794.286133 
	C1048.645874,790.488159 1046.569702,789.915771 1043.006226,789.919800 
	C953.170898,790.021790 863.335449,790.000000 773.000000,790.000000 
z"/>
<path fill="currentColor" opacity="1.000000" stroke="none" 
	d="
M1309.000000,244.067108 
	C1309.000000,299.391052 1309.057251,354.221802 1308.888550,409.051880 
	C1308.875488,413.312286 1310.012451,414.132355 1314.064941,414.102448 
	C1340.895508,413.904419 1367.728882,414.095245 1394.559326,413.893860 
	C1398.433228,413.864777 1399.093262,414.974518 1399.084473,418.572510 
	C1398.960205,469.236328 1398.947632,519.900757 1399.103516,570.564392 
	C1399.115479,574.444214 1398.013428,575.107544 1394.422729,575.086304 
	C1367.591675,574.927551 1340.759033,575.055969 1313.927612,574.932495 
	C1310.388306,574.916199 1308.875610,575.322693 1308.884766,579.584961 
	C1309.044312,654.247498 1309.036377,728.910645 1308.896851,803.573303 
	C1308.889526,807.470276 1310.013550,808.105652 1313.586060,808.084961 
	C1340.417236,807.929138 1367.249756,808.057434 1394.081177,807.930847 
	C1397.638428,807.914001 1399.130371,808.349182 1399.115845,812.593933 
	C1398.937866,864.590759 1398.947266,916.588501 1399.106079,968.585449 
	C1399.118164,972.508606 1397.946655,973.083008 1394.402100,973.079041 
	C1305.073364,972.978577 1215.744507,972.968933 1126.415771,973.103882 
	C1122.496704,973.109802 1121.921265,971.950500 1121.922241,968.403625 
	C1122.006592,672.751709 1122.008911,377.099854 1121.901978,81.447990 
	C1121.900635,77.596321 1122.950439,76.911522 1126.564209,76.915863 
	C1215.892944,77.023270 1305.221802,77.029327 1394.550537,76.900223 
	C1398.400146,76.894661 1399.095093,77.945511 1399.085938,81.562988 
	C1398.959106,131.893478 1398.948120,182.224564 1399.102295,232.554901 
	C1399.114136,236.415115 1398.042603,237.110275 1394.432251,237.087891 
	C1368.101196,236.924637 1341.768677,236.999985 1315.436646,237.000031 
	C1309.000610,237.000046 1309.000610,237.000153 1309.000000,244.067108 
z"/>
<path fill="currentColor" opacity="1.000000" stroke="none" 
	d="
M31.000000,607.000000 
	C31.000000,431.847076 31.017899,257.194153 30.898584,82.541298 
	C30.895548,78.096092 31.868313,76.870575 36.470768,76.884163 
	C95.798912,77.059296 155.127899,77.051582 214.456146,76.895859 
	C218.897797,76.884201 220.115585,77.862457 220.112457,82.468140 
	C219.981354,275.286224 219.748703,468.105011 220.248474,660.921875 
	C220.331345,692.888184 227.896179,723.773804 244.033218,751.920959 
	C256.193573,773.131897 272.691254,790.093933 294.362671,801.795898 
	C309.084351,809.745178 324.804962,814.326721 341.272125,817.127991 
	C358.255249,820.016968 375.348114,819.680359 392.267456,818.727539 
	C419.818207,817.176147 446.604218,811.297852 471.183868,797.927979 
	C477.375519,794.560059 483.211792,790.538757 490.090973,786.272156 
	C485.454010,799.307373 481.167419,811.423706 476.835144,823.523743 
	C464.201599,858.809265 451.580292,894.099182 438.889923,929.364258 
	C434.008942,942.927917 428.966736,956.433716 423.966766,969.954346 
	C423.102234,972.291992 422.122101,973.946960 418.866364,974.116699 
	C396.619720,975.276794 374.359009,975.204407 352.109283,974.906921 
	C336.212982,974.694397 320.397888,973.021729 304.580750,971.166626 
	C285.563507,968.936218 266.787323,965.649902 248.267990,960.946045 
	C229.443176,956.164612 211.111313,949.908875 193.275070,942.105835 
	C175.377899,934.276245 158.283890,925.088928 142.225220,913.996704 
	C131.618454,906.670288 121.647964,898.582947 112.143623,889.811462 
	C95.619591,874.561584 81.933357,857.098267 70.532265,837.878418 
	C62.342190,824.071655 56.021435,809.327576 50.507416,794.192383 
	C43.197197,774.126770 38.498116,753.447815 35.161549,732.471680 
	C33.471302,721.845459 32.510941,711.071228 31.860502,700.261780 
	C29.999893,669.340881 31.614887,638.414795 31.000000,607.000000 
z"/>
<path fill="currentColor" opacity="1.000000" stroke="none" 
	d="
M542.000000,432.000000 
	C542.000000,315.204529 542.023071,198.909027 541.909058,82.613647 
	C541.904907,78.322189 542.632751,76.858109 547.395935,76.873466 
	C607.209106,77.066376 667.023438,77.064827 726.836670,76.872116 
	C731.428467,76.857330 732.208740,78.174736 732.101746,82.348930 
	C731.807251,93.837639 731.682373,105.350830 732.115967,116.830719 
	C732.387756,124.025711 728.880310,129.978256 726.748352,136.271118 
	C719.710022,157.046768 711.868103,177.549515 704.388977,198.176682 
	C693.036560,229.486221 681.668579,260.790283 670.419800,292.137085 
	C657.872314,327.103149 645.623779,362.177368 632.921387,397.086700 
	C622.134338,426.732117 611.555420,456.450897 600.847900,486.122833 
	C590.520630,514.741089 580.203735,543.363159 569.886780,571.985413 
	C561.199463,596.086792 552.244080,620.091492 543.892883,644.314453 
	C543.707458,644.852417 543.114502,645.249878 542.000000,646.530884 
	C542.000000,574.514709 542.000000,503.507355 542.000000,432.000000 
z"/>
<path fill="currentColor" opacity="1.000000" stroke="none" 
	d="
M1705.000000,78.000000 
	C1735.497559,78.000000 1765.495728,78.075783 1795.492188,77.903709 
	C1799.225708,77.882301 1800.104736,78.768288 1800.094360,82.504913 
	C1799.953979,133.167175 1799.953979,183.830048 1800.093750,234.492310 
	C1800.104126,238.223297 1799.232422,239.105576 1795.495361,239.094543 
	C1747.166260,238.951752 1698.836548,238.952011 1650.507446,239.094162 
	C1646.775879,239.105133 1645.895386,238.231628 1645.905640,234.495071 
	C1646.046021,183.832809 1646.046021,133.169937 1645.906250,82.507683 
	C1645.895996,78.776680 1646.762207,77.854805 1650.505615,77.900742 
	C1668.501465,78.121559 1686.501465,78.000000 1705.000000,78.000000 
z"/>
<path fill="currentColor" opacity="1.000000" stroke="none" 
	d="
M1791.947754,812.000000 
	C1800.000000,812.000061 1800.000000,812.000061 1800.000000,819.451050 
	C1800.000000,868.948425 1799.945923,918.445984 1800.100220,967.942871 
	C1800.112915,972.005554 1799.291870,973.127014 1795.044556,973.111511 
	C1747.047729,972.935669 1699.049683,972.943909 1651.052856,973.100891 
	C1646.982300,973.114136 1645.874878,972.279419 1645.889282,968.040161 
	C1646.061157,917.710083 1646.053711,867.379028 1645.898804,817.048889 
	C1645.886230,812.971436 1646.731567,811.873291 1650.963745,811.889221 
	C1697.793945,812.065125 1744.625122,812.000000 1791.947754,812.000000 
z"/>
<path fill="currentColor" opacity="1.000000" stroke="none" 
	d="
M2230.399902,81.224190 
	C2249.314697,74.131821 2267.539795,74.452957 2283.943848,86.177086 
	C2296.301270,95.009140 2303.655518,107.281914 2304.127441,123.269073 
	C2304.489258,135.539886 2302.448730,146.870865 2294.992676,156.800217 
	C2286.201904,168.506775 2274.648438,175.291504 2259.897461,177.107605 
	C2245.511719,178.878754 2232.732666,175.587433 2221.256836,167.001266 
	C2209.918945,158.518478 2203.726562,147.211151 2201.874756,133.058624 
	C2200.121826,119.662132 2203.518799,107.894211 2211.036377,97.112305 
	C2215.876709,90.169945 2222.534912,85.219307 2230.399902,81.224190 
z"/>
<path fill="currentColor" opacity="1.000000" stroke="none" 
	d="
M1336.980469,1068.000000 
	C1327.485352,1068.000000 1318.485596,1068.115967 1309.491821,1067.932007 
	C1306.640015,1067.873657 1305.829102,1068.711060 1305.936035,1071.522583 
	C1306.150879,1077.179443 1306.159302,1082.856567 1305.933350,1088.512573 
	C1305.818848,1091.379883 1306.732666,1092.096069 1309.526733,1092.064331 
	C1322.354736,1091.918335 1335.193115,1092.256958 1348.010864,1091.865479 
	C1352.707520,1091.721924 1352.001831,1094.225952 1352.023438,1097.021240 
	C1352.045532,1099.871216 1352.593018,1102.232788 1347.969360,1102.134644 
	C1331.647949,1101.788208 1315.313721,1101.901733 1298.986938,1102.082153 
	C1295.686890,1102.118652 1294.903809,1101.199219 1294.924194,1097.975220 
	C1295.067261,1075.315918 1295.071655,1052.654785 1294.920288,1029.995605 
	C1294.898438,1026.715210 1295.772583,1025.886597 1299.016113,1025.921509 
	C1315.009766,1026.093994 1331.010864,1026.216919 1346.998657,1025.865234 
	C1351.668457,1025.762695 1351.015259,1028.196167 1351.023438,1031.007935 
	C1351.031738,1033.840454 1351.633423,1036.284424 1346.981079,1036.134399 
	C1334.664062,1035.737305 1322.323853,1036.122437 1309.997437,1035.918213 
	C1306.714111,1035.863770 1305.733521,1036.755981 1305.926514,1040.018555 
	C1306.211304,1044.833618 1306.170898,1049.686401 1305.935425,1054.506836 
	C1305.795654,1057.367798 1306.718628,1058.101929 1309.521362,1058.064941 
	C1321.182617,1057.910400 1332.853149,1058.215454 1344.507568,1057.894287 
	C1349.200684,1057.764893 1347.957031,1060.652832 1347.964722,1063.017212 
	C1347.972534,1065.400513 1349.181396,1068.697876 1344.468994,1068.054077 
	C1342.178955,1067.741333 1339.810913,1068.000000 1336.980469,1068.000000 
z"/>
<path fill="currentColor" opacity="1.000000" stroke="none" 
	d="
M965.779419,1056.679443 
	C960.383972,1059.669312 959.268555,1064.642456 959.093628,1069.638550 
	C958.767456,1078.956299 958.674194,1088.309937 959.136658,1097.616089 
	C959.369812,1102.306885 957.085632,1101.956665 953.876465,1102.096436 
	C950.218201,1102.255859 948.805481,1101.527344 948.883057,1097.365234 
	C949.174683,1081.710938 949.095337,1066.046753 948.922668,1050.388916 
	C948.886475,1047.100708 949.387634,1045.351562 953.121155,1045.970947 
	C955.788147,1046.413208 960.018005,1044.369629 959.016479,1050.058594 
	C958.936218,1050.514404 959.067993,1051.007446 959.146179,1052.127686 
	C964.788696,1046.048950 971.626709,1043.911133 979.204773,1045.211792 
	C983.559875,1045.959351 987.359619,1048.348877 989.469666,1052.959351 
	C995.699036,1044.862061 1003.862183,1043.519775 1013.118591,1045.974976 
	C1019.519165,1047.672729 1021.886292,1052.469727 1023.030396,1058.414917 
	C1024.386230,1065.460449 1023.942688,1072.558105 1023.990906,1079.644531 
	C1024.033936,1085.974731 1023.910522,1092.307495 1024.045410,1098.635132 
	C1024.096924,1101.050171 1023.693359,1102.479858 1020.852783,1102.029541 
	C1019.715271,1101.849121 1018.489563,1101.815918 1017.365417,1102.033203 
	C1013.322021,1102.814941 1012.857056,1100.795410 1012.923279,1097.352173 
	C1013.131470,1086.527588 1013.002930,1075.696533 1012.998962,1064.867920 
	C1012.996643,1058.418213 1009.761230,1054.393433 1004.310669,1054.042358 
	C999.281311,1053.718384 992.850281,1059.033203 991.977722,1063.998169 
	C990.010681,1075.191528 991.089478,1086.470581 991.168701,1097.694580 
	C991.202637,1102.491577 988.948486,1102.052246 985.799683,1102.063843 
	C982.704529,1102.075195 980.684875,1102.225830 980.858765,1097.788940 
	C981.289001,1086.810547 980.874695,1075.802124 981.041809,1064.809448 
	C981.163757,1056.783691 974.828674,1051.005859 965.779419,1056.679443 
z"/>
<path fill="currentColor" opacity="1.000000" stroke="none" 
	d="
M2037.246704,1054.257568 
	C2043.793091,1044.838989 2059.407227,1040.544678 2070.372314,1051.586060 
	C2071.154785,1047.682495 2075.127441,1045.624023 2078.884277,1046.999146 
	C2080.569824,1047.615967 2079.967773,1048.869873 2079.970215,1049.872192 
	C2080.010986,1068.026123 2080.420654,1086.193115 2079.857422,1104.329712 
	C2079.457031,1117.223511 2069.837158,1125.426758 2058.142090,1125.032104 
	C2051.664062,1124.813477 2045.329468,1125.423462 2039.365967,1121.254639 
	C2035.212402,1118.351074 2034.581909,1114.286011 2033.060791,1110.354492 
	C2032.831909,1109.762817 2032.657959,1108.776001 2033.590210,1108.164062 
	C2035.779419,1106.726685 2042.770874,1108.710205 2044.048340,1111.013184 
	C2045.626099,1113.857544 2048.142090,1115.228760 2051.349609,1116.169556 
	C2061.026123,1119.007324 2069.926758,1112.864746 2069.998047,1102.921875 
	C2070.010986,1101.121338 2070.000000,1099.320435 2070.000000,1096.832642 
	C2064.331299,1102.286133 2057.809814,1103.908936 2050.828369,1102.902344 
	C2045.318726,1102.107910 2040.251709,1099.758423 2036.727051,1095.180176 
	C2031.108398,1087.882080 2030.558472,1079.198853 2031.333618,1070.604248 
	C2031.841797,1064.970093 2032.947510,1059.123169 2037.246704,1054.257568 
z"/>
<path fill="currentColor" opacity="1.000000" stroke="none" 
	d="
M1808.000000,1071.137207 
	C1808.000000,1080.120728 1807.704468,1088.633179 1808.121460,1097.110718 
	C1808.338013,1101.515625 1806.816284,1102.703491 1802.874390,1102.011841 
	C1802.389404,1101.926636 1801.859009,1101.914307 1801.379639,1102.013672 
	C1797.382202,1102.841431 1796.898926,1100.842529 1796.922485,1097.369385 
	C1797.074341,1075.042236 1797.126343,1052.712280 1796.883179,1030.386719 
	C1796.839722,1026.381592 1798.139526,1025.434814 1801.623901,1025.985229 
	C1802.274170,1026.088013 1802.977417,1026.112061 1803.617432,1025.981812 
	C1807.612915,1025.168335 1808.202393,1027.140869 1808.078735,1030.630859 
	C1807.819458,1037.953369 1808.174805,1045.297363 1807.921265,1052.620239 
	C1807.806152,1055.943359 1808.432983,1057.209106 1812.136597,1057.099243 
	C1821.958984,1056.807373 1831.805054,1056.749756 1841.622192,1057.120239 
	C1845.678101,1057.273315 1846.189941,1055.822998 1846.075928,1052.360107 
	C1845.829224,1044.869995 1846.125854,1037.363037 1845.936157,1029.869507 
	C1845.863403,1026.991943 1846.328369,1025.399170 1849.645508,1025.963989 
	C1850.941040,1026.184570 1852.316895,1026.111328 1853.635986,1025.975830 
	C1856.058716,1025.727173 1857.086792,1026.320312 1857.071289,1029.146362 
	C1856.944336,1052.307007 1856.971191,1075.468750 1857.042358,1098.629761 
	C1857.049683,1101.030151 1856.708252,1102.498657 1853.858276,1102.025635 
	C1852.885376,1101.864014 1851.845459,1101.878906 1850.866455,1102.021606 
	C1847.197632,1102.556152 1845.708984,1101.508423 1845.885620,1097.351562 
	C1846.260132,1088.536255 1845.885620,1079.691528 1846.065186,1070.863892 
	C1846.123901,1067.972290 1845.645264,1066.829346 1842.349487,1066.908691 
	C1832.024536,1067.157471 1821.687378,1067.126221 1811.360474,1066.922485 
	C1808.294922,1066.861938 1807.604980,1068.041504 1808.000000,1071.137207 
z"/>
<path fill="currentColor" opacity="1.000000" stroke="none" 
	d="
M100.000000,1044.000977 
	C100.000000,1054.657715 100.380569,1064.833618 99.883774,1074.966309 
	C99.459900,1083.611694 97.587509,1091.935059 90.458122,1098.128662 
	C86.743927,1101.355225 82.325699,1102.931641 77.840393,1103.519897 
	C68.574203,1104.735352 59.261360,1104.877563 50.883003,1099.411621 
	C43.423859,1094.545410 40.970348,1086.973999 40.065399,1078.833130 
	C38.303104,1062.979858 39.339897,1047.031372 38.864616,1031.134155 
	C38.724766,1026.456421 40.261906,1025.700806 44.375797,1025.909180 
	C50.987408,1026.244263 50.999977,1025.996948 50.999992,1032.869751 
	C51.000019,1047.023193 50.993504,1061.176514 51.002472,1075.329956 
	C51.007736,1083.633301 55.476261,1090.398682 62.891235,1093.378174 
	C69.131195,1095.885498 79.879776,1093.301880 84.512161,1087.963257 
	C88.224266,1083.685059 88.809647,1078.212036 88.908119,1072.945312 
	C89.175758,1058.630371 89.108749,1044.305786 88.918129,1029.988403 
	C88.874359,1026.701050 89.773384,1025.827881 93.016953,1025.916870 
	C99.994804,1026.108643 99.999969,1025.921021 100.000000,1033.010986 
	C100.000015,1036.507690 100.000000,1040.004517 100.000000,1044.000977 
z"/>
<path fill="currentColor" opacity="1.000000" stroke="none" 
	d="
M668.724487,1073.321289 
	C672.258179,1082.970703 675.554932,1092.289673 678.989929,1101.999268 
	C675.312439,1101.999268 671.854370,1101.955811 668.398193,1102.019287 
	C666.891113,1102.046997 666.369873,1101.698853 665.862244,1099.992920 
	C664.175232,1094.324219 661.901978,1088.833130 660.030090,1083.214966 
	C659.269348,1080.931885 658.251587,1079.852905 655.600464,1079.928223 
	C648.282654,1080.135864 640.952576,1080.108765 633.632812,1079.939453 
	C631.158813,1079.882324 629.787292,1080.568237 628.962402,1082.965698 
	C627.451721,1087.356323 624.898621,1091.538330 624.213928,1096.026001 
	C623.310669,1101.945557 619.990234,1102.212646 615.313965,1102.111816 
	C611.713806,1102.034302 610.290283,1101.830444 611.912109,1097.644165 
	C619.423035,1078.255981 626.642944,1058.755127 633.975037,1039.297607 
	C634.596375,1037.648804 635.347351,1036.046265 635.916931,1034.380737 
	C638.791809,1025.974609 638.785950,1026.196411 647.464417,1025.881836 
	C650.661316,1025.765869 652.007690,1026.845459 652.975891,1029.585571 
	C658.094910,1044.072144 663.307434,1058.525757 668.724487,1073.321289 
z"/>
<path fill="currentColor" opacity="1.000000" stroke="none" 
	d="
M443.628784,1102.995117 
	C430.952728,1106.555176 421.789124,1102.299072 416.362976,1091.171021 
	C410.378937,1078.898804 411.875061,1066.247803 419.137695,1054.183105 
	C424.950989,1044.526001 442.992706,1041.476929 451.329346,1050.806885 
	C451.625336,1051.138062 452.027649,1051.374268 453.000061,1052.147461 
	C453.000061,1044.192749 453.252533,1036.797974 452.915100,1029.430298 
	C452.672729,1024.138428 456.305664,1026.335327 458.582092,1026.046265 
	C461.090149,1025.727905 463.163391,1025.473022 463.118469,1029.580811 
	C462.870697,1052.228271 462.994812,1074.879883 463.007416,1097.530151 
	C463.008789,1099.994995 463.652374,1102.909790 459.469543,1101.992920 
	C456.705566,1101.387207 451.430267,1104.412598 453.394379,1096.644287 
	C450.043457,1099.470215 447.371185,1101.756348 443.628784,1102.995117 
z"/>
<path fill="currentColor" opacity="1.000000" stroke="none" 
	d="
M1501.194824,1087.502686 
	C1498.995728,1074.834473 1498.683960,1062.991455 1507.032227,1052.344604 
	C1513.085693,1044.624390 1528.132324,1042.409546 1536.026733,1048.992676 
	C1536.748901,1049.594849 1537.597534,1050.045410 1539.000000,1050.970215 
	C1539.000000,1043.559814 1539.278442,1036.531372 1538.907715,1029.537231 
	C1538.634033,1024.373169 1542.131104,1026.354004 1544.461548,1026.011841 
	C1547.454834,1025.572510 1549.151733,1025.946411 1549.110962,1029.954102 
	C1548.881226,1052.573853 1548.957886,1075.197388 1549.052002,1097.819092 
	C1549.064087,1100.727417 1548.838745,1102.437744 1545.182373,1102.096313 
	C1542.187988,1101.816406 1538.912964,1102.649048 1539.977661,1097.762939 
	C1540.065552,1097.359619 1539.873047,1096.895020 1539.779541,1096.239624 
	C1534.297241,1103.730225 1526.501343,1105.214111 1518.480591,1103.811035 
	C1509.770508,1102.287109 1504.162109,1096.331665 1501.194824,1087.502686 
z"/>
<path fill="currentColor" opacity="1.000000" stroke="none" 
	d="
M1695.000000,1096.882324 
	C1694.614014,1099.266235 1696.413452,1102.089233 1692.131592,1102.121338 
	C1687.894043,1102.152954 1684.623047,1102.046631 1686.140625,1095.742676 
	C1678.236084,1106.945557 1658.893921,1106.606567 1651.818848,1095.623413 
	C1643.151855,1082.169189 1643.797729,1061.726929 1654.070190,1051.433716 
	C1661.664185,1043.824707 1672.130127,1042.850464 1681.477295,1048.852539 
	C1682.512451,1049.517334 1683.645752,1050.029175 1685.000000,1050.754761 
	C1685.000000,1043.663208 1685.357178,1036.846313 1684.875488,1030.089233 
	C1684.549683,1025.520386 1686.998901,1025.895508 1689.924927,1025.976074 
	C1692.656006,1026.051270 1695.198120,1025.160156 1695.133301,1029.930664 
	C1694.832275,1052.082031 1695.000000,1074.239990 1695.000000,1096.882324 
z"/>
<path fill="currentColor" opacity="1.000000" stroke="none" 
	d="
M1910.029785,1045.971191 
	C1917.828003,1043.360596 1923.879517,1046.334595 1930.000122,1050.867432 
	C1930.000122,1043.415039 1930.241821,1036.323608 1929.917725,1029.258179 
	C1929.689819,1024.288818 1933.104858,1026.208496 1935.244507,1026.078003 
	C1937.389404,1025.947266 1940.137695,1024.765991 1940.096680,1029.235596 
	C1939.886841,1052.024780 1939.985718,1074.817139 1940.019653,1097.608276 
	C1940.023560,1100.177368 1940.479858,1102.614136 1936.391602,1102.083496 
	C1933.362183,1101.690186 1929.530518,1102.921997 1931.357910,1096.527954 
	C1926.098389,1101.501709 1920.857178,1103.718506 1914.343750,1104.189453 
	C1904.079712,1104.931519 1895.530273,1096.466431 1893.140259,1088.883423 
	C1889.358032,1076.883423 1889.409302,1064.982544 1896.985229,1054.064697 
	C1900.080200,1049.604370 1904.090698,1046.647339 1910.029785,1045.971191 
z"/>
<path fill="currentColor" opacity="1.000000" stroke="none" 
	d="
M1157.249756,1049.739014 
	C1158.125244,1050.548706 1158.752319,1051.546997 1159.325806,1051.517090 
	C1160.498901,1051.455933 1159.969604,1050.248657 1159.974243,1049.549438 
	C1160.017334,1043.060669 1160.252319,1036.557861 1159.903564,1030.087646 
	C1159.700562,1026.319092 1161.179199,1025.923706 1164.407715,1025.872925 
	C1167.942017,1025.817383 1169.154419,1026.456665 1169.113037,1030.402100 
	C1168.879028,1052.695312 1169.013184,1074.992188 1168.979614,1097.287842 
	C1168.976318,1099.510864 1170.121948,1102.568237 1165.715576,1102.051636 
	C1162.675171,1101.695068 1158.421509,1103.355957 1160.327881,1096.355591 
	C1155.185547,1101.668823 1150.013672,1104.128052 1143.644165,1104.039795 
	C1133.302612,1103.896118 1125.300659,1098.013794 1121.961182,1087.790649 
	C1118.181885,1076.219727 1119.653931,1065.403198 1125.566406,1054.721436 
	C1130.670898,1045.499268 1147.270020,1041.352295 1157.249756,1049.739014 
z"/>
<path fill="currentColor" opacity="1.000000" stroke="none" 
	d="
M570.027161,1027.252930 
	C572.287842,1025.073975 574.840637,1026.325439 577.230652,1026.030762 
	C579.427185,1025.760010 578.989624,1027.487427 578.990295,1028.732544 
	C579.003174,1052.223999 578.924805,1075.716064 579.074158,1099.206543 
	C579.098816,1103.086914 576.672485,1101.837769 574.791321,1101.987549 
	C571.576355,1102.243652 568.341248,1102.437500 570.758789,1096.044556 
	C565.307556,1101.395874 560.301575,1103.475220 554.196533,1104.172729 
	C543.774475,1105.363403 533.054443,1095.123535 530.998535,1085.591431 
	C528.573242,1074.346924 529.890930,1063.688965 536.038086,1053.861938 
	C541.796814,1044.655884 559.819641,1040.737305 570.003479,1052.615112 
	C570.003479,1043.690308 570.003479,1035.710571 570.027161,1027.252930 
z"/>
<path fill="currentColor" opacity="1.000000" stroke="none" 
	d="
M492.754395,1054.082520 
	C489.520294,1056.247559 486.626251,1057.792236 485.720367,1062.047974 
	C484.891205,1065.943237 480.608002,1063.538452 477.898682,1063.920654 
	C474.935150,1064.338623 476.068512,1061.768555 476.049805,1060.427246 
	C475.957977,1053.844482 481.031128,1047.787476 488.157684,1046.039307 
	C494.929413,1044.378052 501.810516,1044.289062 508.489807,1046.257568 
	C517.404785,1048.884888 519.503784,1053.112549 519.896179,1061.549561 
	C520.344604,1071.193604 520.041260,1080.874878 519.972717,1090.539307 
	C519.954285,1093.145508 520.127380,1095.191895 523.582947,1095.032837 
	C528.039185,1094.827393 525.446228,1098.291870 525.939514,1100.061890 
	C526.609314,1102.465088 525.296631,1103.161499 522.953918,1103.043335 
	C518.174805,1102.802246 512.989075,1104.310669 510.342468,1098.055420 
	C509.541870,1096.163086 507.665314,1098.159668 506.497375,1099.004517 
	C499.807129,1103.844238 492.485382,1105.513306 484.518036,1103.080811 
	C475.817566,1100.424316 471.970215,1094.099731 473.037079,1084.142822 
	C473.910767,1075.988892 479.771667,1071.720093 488.064819,1070.083374 
	C493.636810,1068.983643 499.356720,1068.603149 505.022980,1068.023193 
	C508.322327,1067.685547 509.535004,1065.141479 509.852722,1062.695068 
	C510.320038,1059.096558 507.996246,1056.507935 504.839935,1055.058228 
	C501.133484,1053.355713 497.089020,1054.096558 492.754395,1054.082520 
z"/>
<path fill="currentColor" opacity="1.000000" stroke="none" 
	d="
M1493.782837,1102.970947 
	C1491.815308,1102.997437 1490.307007,1102.888550 1488.820068,1103.019897 
	C1483.773926,1103.465820 1480.328247,1101.766968 1479.771851,1096.117310 
	C1472.317993,1102.819092 1464.131958,1105.889526 1454.527100,1103.062622 
	C1446.639771,1100.741333 1441.312500,1093.814209 1442.039062,1086.917358 
	C1443.153931,1076.336182 1448.162964,1072.352051 1457.875122,1070.090210 
	C1462.909302,1068.917725 1468.152100,1068.615356 1473.312500,1068.022217 
	C1475.814697,1067.734741 1478.547607,1067.505371 1478.896851,1064.482544 
	C1479.262817,1061.315430 1479.480225,1058.024292 1475.836914,1055.934692 
	C1467.346802,1051.065063 1459.134399,1053.558716 1454.955811,1062.254028 
	C1453.000000,1066.324219 1449.096802,1063.742432 1446.290161,1063.728516 
	C1443.932251,1063.716919 1445.642334,1061.184448 1445.719482,1059.586304 
	C1446.180664,1050.012695 1456.628784,1045.113403 1464.514404,1044.980225 
	C1470.569824,1044.878052 1476.465088,1045.048828 1482.094971,1047.931763 
	C1486.859375,1050.371582 1489.018066,1053.985107 1489.006592,1059.177856 
	C1488.984253,1069.334473 1488.990356,1079.491089 1489.006104,1089.647705 
	C1489.010498,1092.545166 1489.353149,1094.382080 1493.223755,1095.300171 
	C1497.045288,1096.206665 1494.797852,1100.193970 1493.782837,1102.970947 
z"/>
<path fill="currentColor" opacity="1.000000" stroke="none" 
	d="
M1191.193970,1084.511597 
	C1193.084106,1090.097656 1196.172485,1094.141357 1201.858521,1094.921631 
	C1208.634766,1095.851562 1214.305542,1093.709351 1217.860229,1087.418945 
	C1218.536011,1086.222900 1218.545166,1084.262085 1220.167236,1084.093384 
	C1222.797974,1083.819824 1225.575806,1083.624268 1228.107300,1084.202271 
	C1229.793091,1084.587158 1229.100220,1086.635620 1228.536865,1087.959229 
	C1223.550537,1099.676636 1216.552124,1105.303589 1200.756226,1103.836304 
	C1189.765137,1102.815186 1183.223145,1097.145264 1180.138916,1084.549316 
	C1177.085938,1072.081421 1178.749390,1060.082031 1188.736450,1050.942749 
	C1196.675903,1043.677124 1206.259033,1043.344727 1216.001709,1047.052734 
	C1224.085205,1050.129272 1227.760254,1056.722168 1228.968750,1064.833374 
	C1230.928467,1077.987061 1230.841553,1078.000000 1217.481323,1078.000000 
	C1209.826538,1078.000000 1202.165161,1078.188354 1194.519653,1077.922607 
	C1190.533203,1077.784058 1188.938477,1078.618286 1190.971436,1082.651123 
	C1191.173950,1083.052734 1191.015503,1083.636230 1191.193970,1084.511597 
z"/>
<path fill="currentColor" opacity="1.000000" stroke="none" 
	d="
M1997.000854,1089.640137 
	C1997.392944,1093.218140 1998.178345,1095.482056 2002.299927,1095.129272 
	C2005.479492,1094.857300 2003.766968,1097.837646 2003.884155,1099.282715 
	C2003.986328,1100.544189 2005.149536,1102.555176 2002.239258,1103.061646 
	C1994.405518,1104.424927 1990.991577,1102.976196 1987.466553,1096.170776 
	C1980.781494,1103.127441 1972.260864,1105.680542 1963.322754,1103.520020 
	C1954.829346,1101.466919 1949.663086,1096.057861 1951.031128,1083.778198 
	C1951.853027,1076.400879 1956.887329,1072.073364 1965.409424,1070.109009 
	C1970.608643,1068.910645 1976.022949,1068.620483 1981.351807,1068.021851 
	C1983.864746,1067.739502 1986.501587,1067.478149 1986.925537,1064.442383 
	C1987.437134,1060.777344 1987.498047,1056.631226 1983.234619,1055.217163 
	C1977.967041,1053.469849 1972.454224,1052.737427 1967.200806,1055.912354 
	C1966.322510,1056.443115 1965.199707,1056.846069 1965.078613,1057.775513 
	C1964.080933,1065.438477 1958.685913,1064.386108 1953.220215,1063.732788 
	C1953.671997,1061.128296 1953.855957,1058.440552 1954.626709,1055.933228 
	C1956.855591,1048.682495 1963.331665,1046.257446 1969.555176,1045.260864 
	C1976.544922,1044.141602 1983.867920,1044.411621 1990.551270,1048.123169 
	C1994.838745,1050.504028 1996.961670,1053.924316 1996.984863,1058.691650 
	C1997.034302,1068.852661 1997.000000,1079.014038 1997.000854,1089.640137 
z"/>
<path fill="currentColor" opacity="1.000000" stroke="none" 
	d="
M1705.000732,1081.607422 
	C1705.226440,1074.813965 1704.489624,1068.496948 1706.856934,1062.241821 
	C1710.367432,1052.966675 1716.697998,1046.793457 1726.229980,1045.197388 
	C1736.160034,1043.534912 1745.100098,1046.788330 1751.368164,1055.051758 
	C1753.532104,1057.904297 1754.635376,1061.672119 1754.938965,1065.373657 
	C1755.139893,1067.821655 1755.343140,1070.201782 1755.899902,1072.627197 
	C1756.667725,1075.971191 1756.286987,1078.343872 1751.408325,1078.138306 
	C1740.774536,1077.690430 1730.107178,1078.100464 1719.457153,1077.932617 
	C1716.632690,1077.888184 1715.563110,1078.612183 1715.984375,1081.485840 
	C1716.922119,1087.882568 1721.720093,1093.861694 1726.954590,1094.960938 
	C1733.678223,1096.372925 1740.044434,1093.244507 1743.723999,1086.720459 
	C1744.950317,1084.546265 1753.023804,1082.685181 1754.596436,1084.297974 
	C1755.354248,1085.075439 1754.885986,1086.040527 1754.560669,1087.008911 
	C1751.531982,1096.022583 1743.616333,1103.504883 1732.322754,1104.215576 
	C1719.480713,1105.023560 1707.886230,1097.591187 1705.000732,1081.607422 
z"/>
<path fill="currentColor" opacity="1.000000" stroke="none" 
	d="
M1080.000000,1069.006958 
	C1080.000000,1075.830078 1079.960449,1082.155151 1080.015869,1088.479248 
	C1080.046143,1091.929932 1080.406982,1095.195923 1085.177856,1095.020264 
	C1088.208008,1094.908691 1086.977417,1097.361694 1086.889160,1098.607666 
	C1086.784546,1100.084961 1088.381836,1102.320923 1085.398071,1103.014893 
	C1077.907104,1104.757202 1073.811523,1102.915649 1070.576782,1096.039307 
	C1063.952881,1103.075439 1055.434814,1105.689941 1046.518188,1103.570679 
	C1037.586792,1101.447998 1032.556519,1095.897827 1034.076538,1083.510010 
	C1034.982666,1076.124878 1039.944092,1072.020264 1048.660767,1070.087524 
	C1053.710571,1068.967773 1058.938477,1068.638794 1064.093384,1068.012451 
	C1066.703857,1067.695312 1069.524292,1067.647949 1069.965820,1064.212036 
	C1070.422363,1060.658081 1070.385132,1056.825562 1066.488281,1055.300415 
	C1061.906616,1053.507324 1057.023315,1053.140503 1052.189453,1054.924561 
	C1049.419556,1055.946899 1047.506104,1057.558228 1046.957031,1060.650269 
	C1046.612793,1062.588745 1045.894653,1064.036011 1043.227417,1064.088623 
	C1036.397461,1064.223389 1036.151001,1063.520874 1037.777344,1056.535767 
	C1039.734497,1048.130005 1046.677734,1046.426514 1053.043091,1045.303223 
	C1059.457642,1044.171265 1066.216675,1044.463867 1072.607910,1047.802002 
	C1077.709717,1050.466675 1080.361206,1053.771606 1080.030396,1059.522583 
	C1079.858643,1062.508545 1080.000000,1065.512573 1080.000000,1069.006958 
z"/>
<path fill="currentColor" opacity="1.000000" stroke="none" 
	d="
M276.999237,1078.000000 
	C270.842163,1078.000000 265.179718,1078.140869 259.529510,1077.939209 
	C256.793274,1077.841553 255.704544,1078.486572 255.942978,1081.433472 
	C256.351624,1086.484253 261.511230,1093.813354 265.791595,1094.921021 
	C272.004120,1096.528687 280.595825,1093.625977 282.769989,1088.048950 
	C284.349609,1083.997192 286.639191,1083.725586 289.980499,1083.979126 
	C291.579346,1084.100464 293.195007,1084.000000 294.883179,1084.000000 
	C290.986786,1104.145386 270.412170,1107.916870 257.795074,1101.267822 
	C249.385727,1096.836182 245.234329,1089.546997 245.040634,1080.134888 
	C244.890320,1072.829956 244.307861,1065.467651 248.054230,1058.610352 
	C254.515762,1046.783081 264.342072,1043.351929 275.233551,1045.298096 
	C288.592621,1047.684937 294.784088,1056.482300 294.976746,1069.531860 
	C295.101746,1077.998535 295.001465,1078.000000 286.484253,1078.000000 
	C283.489136,1078.000000 280.494019,1078.000000 276.999237,1078.000000 
z"/>
<path fill="currentColor" opacity="1.000000" stroke="none" 
	d="
M1610.000000,1075.810791 
	C1609.582520,1083.309570 1607.495483,1089.878662 1603.631348,1095.695679 
	C1600.731812,1100.060303 1595.990845,1102.349365 1591.043579,1103.368408 
	C1576.508423,1106.362671 1562.541016,1101.852905 1558.967407,1083.655762 
	C1556.844604,1072.846313 1558.109985,1062.905273 1564.635010,1053.659180 
	C1568.299072,1048.466919 1573.411133,1045.897217 1579.102051,1045.128418 
	C1599.641357,1042.353394 1610.348755,1055.324097 1610.001465,1073.346802 
	C1609.988647,1074.012573 1610.000000,1074.678711 1610.000000,1075.810791 
z"/>
<path fill="currentColor" opacity="1.000000" stroke="none" 
	d="
M2136.811523,1054.452148 
	C2142.797363,1067.110596 2143.093506,1079.423340 2137.031494,1091.775635 
	C2132.949951,1100.093140 2126.176025,1103.701782 2117.084473,1104.061646 
	C2107.308350,1104.448486 2098.981201,1102.054565 2093.750244,1093.159180 
	C2091.553467,1089.423706 2089.906250,1085.359253 2089.999756,1080.847412 
	C2090.122559,1074.934937 2089.459229,1068.975220 2091.018799,1063.147949 
	C2093.738037,1052.988281 2104.213867,1044.344238 2114.478760,1044.758911 
	C2123.400146,1045.119141 2130.736084,1047.463989 2136.811523,1054.452148 
z"/>
<path fill="currentColor" opacity="1.000000" stroke="none" 
	d="
M784.194702,1102.039551 
	C773.491089,1097.440674 770.425598,1088.684082 769.992554,1078.360596 
	C769.647888,1070.142456 770.096619,1062.168091 774.965332,1055.004272 
	C780.614929,1046.691528 792.765015,1042.347900 802.864868,1045.350098 
	C814.590881,1048.835938 820.978577,1057.434814 821.012451,1068.722534 
	C821.036926,1076.866333 821.489441,1085.006592 817.055115,1092.461182 
	C810.561829,1103.377319 798.790894,1106.861206 784.194702,1102.039551 
z"/>
<path fill="currentColor" opacity="1.000000" stroke="none" 
	d="
M895.777832,1050.718018 
	C904.229187,1043.246216 913.700623,1043.412598 923.089844,1046.750244 
	C932.945190,1050.253662 937.529419,1058.134399 937.993530,1068.451660 
	C938.362366,1076.651123 938.202820,1084.728027 934.015747,1092.222412 
	C929.740295,1099.874756 923.227600,1103.507690 914.642639,1104.019653 
	C904.750854,1104.609497 896.143982,1102.348389 890.795227,1093.202515 
	C888.609924,1089.465698 886.782715,1085.423706 887.026672,1080.913574 
	C887.386597,1074.259521 885.982178,1067.539551 888.841309,1060.966675 
	C890.511536,1057.126831 892.571838,1053.830566 895.777832,1050.718018 
z"/>
<path fill="currentColor" opacity="1.000000" stroke="none" 
	d="
M350.000885,1060.097534 
	C350.172699,1064.553223 353.248444,1065.963135 356.357849,1066.936035 
	C362.309418,1068.798096 368.323181,1070.500977 374.385315,1071.962036 
	C387.070404,1075.019775 386.859985,1089.959351 380.419464,1097.187500 
	C375.933289,1102.222412 370.485596,1104.300415 363.962708,1103.982178 
	C358.797455,1103.729980 353.684387,1104.501709 348.518799,1102.260132 
	C342.205200,1099.520264 339.664948,1094.486572 338.166168,1088.584595 
	C337.857605,1087.369507 336.393829,1083.649780 339.804199,1084.232300 
	C342.493469,1084.691528 346.785309,1080.709351 348.092499,1086.762451 
	C349.381134,1092.729370 355.224396,1096.256226 362.025452,1095.333740 
	C364.690918,1094.972290 367.445282,1095.210449 370.068756,1093.639404 
	C372.997711,1091.885376 373.952484,1089.688354 374.055511,1086.505371 
	C374.169678,1082.977783 371.498413,1081.908813 369.199707,1081.143066 
	C363.286987,1079.173584 357.163147,1077.847900 351.206085,1075.999390 
	C342.264771,1073.224854 338.151245,1067.964111 339.001587,1060.835205 
	C339.942902,1052.943481 347.134216,1045.546631 355.014069,1045.086914 
	C361.176849,1044.727417 367.451111,1044.384155 373.362335,1047.089111 
	C379.101746,1049.715332 381.377136,1054.796509 382.948700,1060.358887 
	C383.417542,1062.018066 382.911499,1063.193970 380.709930,1063.032593 
	C377.118347,1062.769409 373.676422,1064.130859 371.576294,1058.733643 
	C369.485626,1053.360840 363.312866,1053.855591 358.145203,1053.978760 
	C354.096008,1054.075195 351.381287,1055.894043 350.000885,1060.097534 
z"/>
<path fill="currentColor" opacity="1.000000" stroke="none" 
	d="
M1362.576660,1068.086182 
	C1360.079712,1059.243042 1362.086426,1052.098389 1370.014648,1047.576904 
	C1376.898804,1043.650879 1394.794189,1042.420410 1401.920288,1052.448730 
	C1402.568604,1053.361206 1403.477417,1054.264526 1403.674805,1055.286133 
	C1404.146606,1057.727295 1406.611816,1060.907227 1404.388428,1062.452026 
	C1402.454102,1063.796143 1398.957275,1062.942627 1396.150269,1062.959473 
	C1394.565796,1062.968872 1395.233276,1061.521973 1394.893066,1060.724854 
	C1392.033936,1054.023682 1380.575684,1051.180542 1374.774048,1055.765259 
	C1372.903809,1057.243286 1371.232910,1059.004517 1372.048828,1061.640991 
	C1372.940186,1064.520996 1375.350586,1066.043823 1378.008545,1066.946045 
	C1383.762207,1068.898804 1389.758057,1069.983276 1395.589844,1071.743652 
	C1402.328735,1073.777710 1406.269897,1077.522827 1406.958618,1084.407349 
	C1407.651367,1091.333740 1403.616211,1099.449463 1397.542114,1101.658936 
	C1388.170044,1105.067383 1378.421265,1105.863403 1369.052979,1101.479614 
	C1362.872925,1098.587769 1360.906372,1092.706299 1360.035400,1086.421021 
	C1359.917358,1085.568726 1359.551880,1084.185425 1361.031738,1084.073242 
	C1363.183716,1083.910278 1365.384521,1084.230591 1367.512939,1083.951660 
	C1371.127319,1083.478027 1369.702393,1086.440552 1370.312134,1087.886841 
	C1372.355835,1092.734253 1378.175171,1096.082520 1384.066528,1095.349609 
	C1387.070801,1094.975708 1390.039307,1094.722534 1392.917603,1093.153198 
	C1395.676392,1091.648926 1396.645874,1089.145264 1396.722656,1086.879517 
	C1396.787231,1084.970581 1395.038574,1083.015869 1392.676270,1081.862183 
	C1387.242310,1079.208130 1381.296143,1078.642822 1375.632446,1076.974854 
	C1370.493652,1075.461548 1365.305542,1073.913696 1362.576660,1068.086182 
z"/>
<path fill="currentColor" opacity="1.000000" stroke="none" 
	d="
M113.000000,1094.932007 
	C113.000000,1079.959839 113.073250,1065.480103 112.945488,1051.002075 
	C112.915710,1047.627686 113.027298,1045.496948 117.505287,1045.854736 
	C121.144554,1046.145508 124.204216,1045.896118 123.018768,1050.948120 
	C122.909355,1051.414429 123.050972,1051.939697 123.082680,1052.569580 
	C127.609261,1048.345215 132.554642,1045.160889 138.913910,1045.002319 
	C145.089737,1044.848267 150.881271,1045.494507 155.317993,1050.712158 
	C158.042892,1053.916748 158.869171,1057.630371 158.928680,1061.457397 
	C159.120163,1073.770020 158.771469,1086.093750 159.109360,1098.400024 
	C159.249908,1103.518921 155.996124,1101.710083 153.599899,1101.995361 
	C150.691299,1102.341797 148.741364,1102.225830 148.884766,1098.099121 
	C149.237091,1087.959351 149.203018,1077.793213 148.913269,1067.649536 
	C148.771072,1062.671509 148.235992,1057.327881 142.599945,1055.045410 
	C134.335983,1051.698486 124.175179,1058.851562 124.033653,1068.130127 
	C123.883926,1077.947021 123.773582,1087.775757 124.111404,1097.583374 
	C124.246605,1101.508667 122.986031,1102.242188 119.412361,1102.085693 
	C113.010147,1101.805298 113.000610,1102.023071 113.000000,1094.932007 
z"/>
<path fill="currentColor" opacity="1.000000" stroke="none" 
	d="
M832.000000,1091.971191 
	C832.000000,1078.161987 832.029541,1064.847412 831.978394,1051.533081 
	C831.966187,1048.361572 831.320801,1045.388184 836.474976,1045.851196 
	C840.387756,1046.202515 843.760376,1045.887695 841.046814,1053.170288 
	C847.187866,1046.822144 853.185425,1044.895142 860.057373,1044.948242 
	C869.265808,1045.019287 876.327881,1050.352783 877.239868,1060.596558 
	C878.362000,1073.200806 877.378967,1085.753296 878.068054,1098.301758 
	C878.244446,1101.512817 877.181641,1102.460083 874.190796,1102.031494 
	C872.886108,1101.844604 871.510803,1101.847046 870.205383,1102.031494 
	C867.485535,1102.415894 866.914612,1101.223755 866.945740,1098.699707 
	C867.074951,1088.216064 867.001465,1077.729980 866.999451,1067.244751 
	C866.997925,1059.465332 864.465149,1055.593140 858.446106,1054.157471 
	C853.744690,1053.036133 846.444275,1057.328491 843.812744,1062.686768 
	C842.658997,1065.035889 841.937256,1067.405396 841.963684,1070.088135 
	C842.057068,1079.573730 841.759033,1089.069702 842.101562,1098.543945 
	C842.272705,1103.276733 839.270325,1101.913696 836.954041,1101.960571 
	C834.553528,1102.009155 831.258240,1103.141235 831.952087,1098.450317 
	C832.241150,1096.495850 832.000000,1094.463013 832.000000,1091.971191 
z"/>
<path fill="currentColor" opacity="1.000000" stroke="none" 
	d="
M696.000000,1083.622192 
	C696.533813,1090.480957 699.899658,1093.941162 704.918518,1094.412354 
	C710.453735,1094.932007 716.038757,1091.255127 718.009521,1085.900269 
	C720.636902,1078.761230 719.947266,1071.360596 719.994934,1064.011230 
	C720.022949,1059.679932 720.312683,1055.319214 719.910706,1051.025391 
	C719.521301,1046.865234 720.807312,1045.806274 724.988037,1045.820435 
	C729.117981,1045.834229 730.192139,1046.812622 730.113037,1050.994141 
	C729.826111,1066.148438 730.082825,1081.312622 729.899170,1096.470215 
	C729.875244,1098.446777 732.079834,1102.433960 727.027771,1101.968506 
	C723.865601,1101.677002 718.743225,1104.351196 720.070984,1096.610229 
	C713.311096,1103.473022 706.121582,1105.086304 697.678528,1103.085693 
	C690.239136,1101.322998 686.051086,1094.568237 686.021423,1088.812256 
	C685.953674,1075.651855 686.174805,1062.487427 685.915466,1049.331787 
	C685.809143,1043.936523 689.481140,1046.447510 691.684631,1046.054688 
	C694.334534,1045.582153 696.228271,1045.767822 696.114197,1049.683594 
	C695.789246,1060.835815 696.000000,1072.003540 696.000000,1083.622192 
z"/>
<path fill="currentColor" opacity="1.000000" stroke="none" 
	d="
M223.018372,1065.094482 
	C224.706116,1060.007690 226.565475,1055.387451 227.981720,1050.635010 
	C229.019928,1047.150879 230.703537,1045.358398 234.556122,1045.948120 
	C236.500580,1046.245728 238.528168,1046.000000 241.172607,1046.000000 
	C237.916672,1054.832031 234.850769,1063.301636 231.672546,1071.728760 
	C228.169159,1081.017822 224.510986,1090.248657 221.064178,1099.558228 
	C220.615982,1100.768799 220.179947,1101.837646 218.976791,1101.918457 
	C216.323227,1102.096558 213.649734,1102.033813 210.985779,1101.988159 
	C207.311844,1101.925171 208.044067,1098.435547 207.310745,1096.551147 
	C201.159225,1080.744141 195.315903,1064.817261 189.417206,1048.912598 
	C189.146362,1048.182373 188.976517,1046.700317 189.191223,1046.611450 
	C192.344086,1045.307007 195.688599,1046.357178 198.935043,1045.982300 
	C200.870285,1045.758667 200.755692,1047.041870 201.186234,1048.338989 
	C205.574966,1061.561646 210.080002,1074.745972 214.998901,1089.257935 
	C217.899246,1080.647339 220.449600,1073.075806 223.018372,1065.094482 
z"/>
<path fill="currentColor" opacity="1.000000" stroke="none" 
	d="
M1418.000000,1069.006348 
	C1418.000000,1066.343506 1417.864380,1064.168701 1418.028442,1062.016724 
	C1418.364502,1057.606445 1418.483643,1053.878418 1412.003784,1054.875610 
	C1408.432007,1055.425171 1410.140137,1052.004395 1410.154541,1050.529541 
	C1410.169067,1049.040405 1408.416748,1045.604980 1411.946777,1046.135498 
	C1418.356201,1047.098633 1418.492798,1043.545776 1418.012573,1039.040527 
	C1417.924805,1038.217407 1418.118042,1037.356689 1417.980225,1036.547729 
	C1417.226807,1032.122803 1418.812500,1030.617310 1423.461060,1030.831543 
	C1427.055664,1030.997070 1428.724365,1031.620239 1428.031372,1035.458374 
	C1427.827515,1036.587158 1428.118896,1037.798096 1427.979370,1038.946655 
	C1427.383057,1043.853394 1428.049072,1047.377319 1434.451538,1046.050781 
	C1437.941772,1045.327637 1437.179810,1048.276855 1436.893921,1049.917725 
	C1436.583008,1051.701904 1439.015625,1055.054199 1434.569824,1055.000854 
	C1433.570923,1054.988892 1432.555420,1055.116089 1431.576050,1054.977539 
	C1428.849854,1054.592285 1427.872070,1055.487183 1427.927612,1058.427490 
	C1428.116821,1068.413940 1428.092285,1078.407227 1427.954590,1088.395386 
	C1427.899536,1092.384766 1429.431030,1094.424927 1433.486450,1093.966309 
	C1436.303223,1093.647827 1437.400513,1094.602051 1437.031250,1097.468506 
	C1436.714233,1099.928467 1437.971924,1103.211182 1433.494019,1103.015747 
	C1431.333740,1102.921509 1429.164062,1103.054932 1427.001709,1102.988892 
	C1422.035767,1102.837402 1418.077271,1098.952271 1418.023804,1093.979858 
	C1417.936035,1085.822388 1418.000000,1077.663208 1418.000000,1069.006348 
z"/>
<path fill="currentColor" opacity="1.000000" stroke="none" 
	d="
M746.000000,1079.994263 
	C745.999939,1072.509644 745.876099,1065.520630 746.061707,1058.539795 
	C746.134827,1055.792725 745.436340,1054.427002 742.555237,1055.012329 
	C738.410767,1055.854248 738.913513,1053.070679 738.998657,1050.571289 
	C739.077515,1048.253906 738.107361,1045.142212 742.408936,1046.005615 
	C745.783936,1046.683105 746.306824,1044.900635 746.036987,1042.102295 
	C745.846191,1040.124756 746.223938,1038.083008 745.952881,1036.124512 
	C745.407227,1032.181519 746.513916,1030.865479 750.867065,1030.789307 
	C755.520020,1030.708008 756.661438,1032.256592 756.026794,1036.362549 
	C755.851013,1037.499634 756.146179,1038.709106 755.974365,1039.847412 
	C755.276489,1044.471069 756.436584,1047.074463 761.840393,1046.039917 
	C766.309509,1045.184082 764.808594,1048.702515 764.972839,1050.820557 
	C765.151306,1053.122314 765.526001,1055.778076 761.695435,1054.996826 
	C756.807068,1053.999634 755.650391,1056.054321 755.876465,1060.794067 
	C756.303955,1069.755249 756.004089,1078.751465 755.998108,1087.733032 
	C755.995483,1091.699219 757.176758,1094.566406 761.918274,1093.985107 
	C764.204163,1093.704956 765.490173,1094.331787 764.994751,1096.889282 
	C764.552307,1099.172729 766.447693,1102.448730 762.081177,1103.026489 
	C750.281311,1104.588013 746.000488,1100.902832 746.000000,1088.975830 
	C745.999939,1086.148315 746.000000,1083.320679 746.000000,1079.994263 
z"/>
<path fill="currentColor" opacity="1.000000" stroke="none" 
	d="
M321.366943,1048.138916 
	C322.931854,1047.218994 324.240143,1046.598145 325.477356,1045.858398 
	C328.092163,1044.295044 332.034027,1044.029419 333.286407,1045.529785 
	C335.282471,1047.921143 334.019867,1051.877319 333.848053,1055.138916 
	C333.769257,1056.634888 331.919891,1055.929932 330.869171,1055.974487 
	C321.685608,1056.364746 317.001221,1061.239868 317.000214,1070.494629 
	C316.999207,1079.645996 316.866028,1088.800415 317.073364,1097.947021 
	C317.144989,1101.107300 316.424133,1102.556763 313.049072,1102.037598 
	C311.586121,1101.812744 310.051941,1101.902222 308.564423,1102.024048 
	C306.685120,1102.177856 305.952881,1101.588379 305.961212,1099.560791 
	C306.031128,1082.589478 306.018463,1065.617798 305.973724,1048.646362 
	C305.969055,1046.884766 306.244141,1046.088135 308.348511,1045.925903 
	C315.391083,1045.382935 315.621429,1045.454590 316.508362,1053.609497 
	C318.322083,1051.535645 319.700104,1049.959961 321.366943,1048.138916 
z"/>
<path fill="currentColor" opacity="1.000000" stroke="none" 
	d="
M1241.000000,1075.000000 
	C1241.000000,1059.669800 1241.229370,1044.833862 1240.864990,1030.012573 
	C1240.750610,1025.356934 1243.172363,1025.974487 1245.997803,1025.976685 
	C1248.817627,1025.978882 1251.193726,1025.353638 1251.133179,1030.006592 
	C1250.838623,1052.664673 1250.838745,1075.330811 1251.133179,1097.988892 
	C1251.193604,1102.635132 1248.827881,1102.025757 1246.002319,1102.023438 
	C1243.182739,1102.021118 1240.575439,1102.671753 1240.873169,1097.987183 
	C1241.348145,1090.518921 1241.000000,1082.998413 1241.000000,1075.000000 
z"/>
<path fill="currentColor" opacity="1.000000" stroke="none" 
	d="
M2022.000000,1046.000244 
	C2022.000000,1063.663086 2021.795654,1080.830200 2022.134521,1097.986572 
	C2022.226318,1102.636353 2019.830688,1102.027100 2017.003540,1102.023438 
	C2014.185425,1102.019775 2011.806274,1102.650024 2011.866943,1097.994751 
	C2012.161621,1075.336548 2012.161255,1052.670532 2011.866821,1030.012329 
	C2011.806519,1025.368042 2014.169312,1025.972900 2016.996460,1025.976562 
	C2019.814575,1025.980225 2022.564087,1025.320190 2022.111938,1030.014282 
	C2021.618896,1035.132446 2022.000000,1040.334717 2022.000000,1046.000244 
z"/>
<path fill="currentColor" opacity="1.000000" stroke="none" 
	d="
M1871.000000,1052.089600 
	C1871.382935,1049.764160 1869.901001,1046.799927 1871.962402,1046.255981 
	C1874.902710,1045.479980 1878.233154,1045.934814 1881.358398,1046.248291 
	C1882.382446,1046.350952 1881.984619,1047.968628 1881.985718,1048.914673 
	C1882.005005,1065.579834 1881.960815,1082.245117 1882.045410,1098.909790 
	C1882.057007,1101.183594 1881.619507,1102.380859 1879.077759,1102.026978 
	C1877.933472,1101.867676 1876.724487,1101.848267 1875.586304,1102.028076 
	C1872.000732,1102.594849 1870.818237,1101.476196 1870.889404,1097.571655 
	C1871.162720,1082.578003 1871.000000,1067.576538 1871.000000,1052.089600 
z"/>
<path fill="currentColor" opacity="1.000000" stroke="none" 
	d="
M394.028137,1047.245483 
	C396.648193,1045.189941 399.495483,1046.321045 402.211365,1046.021240 
	C404.384949,1045.781250 403.991821,1047.443481 403.992615,1048.702515 
	C404.003021,1065.637817 403.972382,1082.573120 404.035706,1099.508179 
	C404.042999,1101.453857 403.416107,1101.928955 401.504364,1102.061035 
	C393.993896,1102.579712 393.999664,1102.669067 394.000122,1095.044678 
	C394.001007,1079.271606 394.002380,1063.498657 394.028137,1047.245483 
z"/>
<path fill="currentColor" opacity="1.000000" stroke="none" 
	d="
M182.000000,1082.999512 
	C181.999924,1088.664673 181.794907,1093.840576 182.060410,1098.992065 
	C182.301071,1103.661621 178.972763,1101.890747 176.997940,1101.892822 
	C175.021408,1101.894775 171.875076,1103.647949 171.927200,1098.990479 
	C172.113632,1082.330322 172.112946,1065.665771 171.927673,1049.005615 
	C171.875854,1044.345459 175.027222,1046.109131 177.002045,1046.107178 
	C178.978577,1046.105103 182.166306,1044.349243 182.072433,1049.010132 
	C181.847672,1060.169312 181.999924,1071.335938 182.000000,1082.999512 
z"/>
<path fill="currentColor" opacity="1.000000" stroke="none" 
	d="
M792.302734,1028.198730 
	C794.356812,1024.861328 803.834900,1022.209167 806.395935,1024.131592 
	C807.587952,1025.026245 806.652893,1025.774658 805.998413,1026.488403 
	C802.344116,1030.473389 798.712158,1034.479004 795.033936,1038.441895 
	C794.393677,1039.131714 793.838684,1040.162598 792.666626,1039.975342 
	C790.486755,1039.626831 787.667419,1041.189697 786.232056,1039.157349 
	C784.859863,1037.214478 787.859985,1035.984863 788.495544,1034.169312 
	C789.216675,1032.109497 790.808533,1030.354736 792.302734,1028.198730 
z"/>
<path fill="currentColor" opacity="1.000000" stroke="none" 
	d="
M1877.927490,1026.000000 
	C1881.005249,1025.601562 1882.452148,1026.326782 1882.039062,1029.341309 
	C1881.817505,1030.958374 1881.868042,1032.643921 1882.031860,1034.275024 
	C1882.251099,1036.455811 1881.437134,1037.323120 1879.271484,1037.014038 
	C1878.625732,1036.921875 1877.946655,1037.069580 1877.298340,1036.987061 
	C1875.244141,1036.725342 1871.983643,1038.035400 1871.371338,1036.252563 
	C1870.410034,1033.453491 1870.341064,1029.856812 1871.265259,1027.049316 
	C1872.072998,1024.595703 1875.346069,1026.531250 1877.927490,1026.000000 
z"/>
<path fill="currentColor" opacity="1.000000" stroke="none" 
	d="
M394.000000,1030.074463 
	C393.544067,1023.269104 398.374390,1026.786987 400.808258,1026.072021 
	C403.948883,1025.149536 404.278534,1027.293091 404.010925,1029.715698 
	C403.939056,1030.366333 404.083038,1031.044556 403.984009,1031.687866 
	C403.718445,1033.412842 404.960510,1036.155151 403.281525,1036.677856 
	C400.731110,1037.471802 397.486267,1037.664917 395.052307,1036.746338 
	C392.597900,1035.819946 394.529907,1032.654053 394.000000,1030.074463 
z"/>
<path fill="currentColor" opacity="1.000000" stroke="none" 
	d="
M181.616333,1026.402100 
	C181.963303,1028.885498 181.822311,1031.042236 182.039169,1033.162109 
	C182.329025,1035.995605 181.693680,1037.615723 178.407944,1037.018433 
	C176.365509,1036.647095 173.055283,1037.998291 172.461685,1036.330933 
	C171.473389,1033.554932 171.998093,1030.203003 172.082428,1027.099121 
	C172.120377,1025.702271 173.459457,1026.019531 174.373108,1026.013062 
	C176.677750,1025.996704 178.982803,1026.039795 181.616333,1026.402100 
z"/>
<path fill="#000000" opacity="1.000000" stroke="none" 
	d="
M852.265076,391.347717 
	C863.277161,357.474915 874.060852,323.944611 885.291260,289.025330 
	C889.021362,300.963684 892.323730,311.616608 895.678345,322.253113 
	C903.970276,348.543671 912.324158,374.814758 920.581909,401.116058 
	C928.936890,427.727112 937.195007,454.368561 945.516541,480.990112 
	C952.498962,503.327606 959.527039,525.650757 966.506592,547.989136 
	C974.823914,574.609436 983.041138,601.261414 991.493408,627.838745 
	C992.645081,631.460266 991.712463,632.048950 988.344604,632.045959 
	C918.856262,631.984863 849.367798,631.996033 779.879395,632.014587 
	C777.113159,632.015320 775.303467,632.524292 776.792236,628.148621 
	C782.264099,612.065857 786.958435,595.720581 792.141846,579.537048 
	C800.550476,553.283325 809.183472,527.101440 817.591736,500.847626 
	C825.513550,476.112671 833.274963,451.326294 841.091980,426.557831 
	C844.758301,414.940979 848.389526,403.313110 852.265076,391.347717 
z"/>
<path fill="#000000" opacity="1.000000" stroke="none" 
	d="
M2284.787354,105.409042 
	C2288.372070,112.040077 2290.861084,118.808640 2290.852783,125.885010 
	C2290.838867,137.799973 2287.026367,148.556839 2277.791260,156.667206 
	C2261.915527,170.608810 2239.896240,168.806137 2226.179688,154.391205 
	C2205.570068,132.732147 2214.841309,98.200020 2241.588135,89.488571 
	C2256.464355,84.643379 2272.314453,87.401764 2284.787354,105.409042 
z"/>
<path fill="#000000" opacity="1.000000" stroke="none" 
	d="
M2068.810059,1084.529785 
	C2063.997803,1093.952026 2056.258545,1096.653320 2048.290527,1092.061768 
	C2045.258057,1090.314209 2043.836792,1087.468506 2043.035767,1084.340698 
	C2041.091309,1076.747437 2041.289429,1069.254883 2044.503784,1061.946045 
	C2046.915039,1056.463257 2051.863281,1054.074707 2056.962646,1054.330811 
	C2062.045898,1054.586060 2066.925537,1057.544067 2068.892578,1062.902954 
	C2071.459473,1069.896118 2071.889893,1077.068848 2068.810059,1084.529785 
z"/>
<path fill="#000000" opacity="1.000000" stroke="none" 
	d="
M637.999756,1058.002441 
	C640.166992,1051.902710 642.295471,1046.206543 644.510559,1040.278564 
	C648.504333,1047.442261 650.040588,1055.460327 652.907593,1062.962036 
	C655.561584,1069.906616 655.317139,1070.000000 647.712769,1070.000000 
	C643.224426,1070.000000 638.736084,1070.000000 633.737183,1070.000000 
	C635.241028,1065.872192 636.601013,1062.139160 637.999756,1058.002441 
z"/>
<path fill="#000000" opacity="1.000000" stroke="none" 
	d="
M431.339661,1092.830688 
	C426.886658,1089.804077 425.280243,1085.462891 424.495880,1080.938354 
	C423.165771,1073.265991 423.095428,1065.377319 428.514771,1059.201538 
	C434.700562,1052.152466 444.378143,1051.879517 449.692902,1060.712280 
	C454.989960,1069.515747 454.650421,1079.396729 449.717804,1088.475586 
	C445.989044,1095.338867 440.014679,1096.516235 431.339661,1092.830688 
z"/>
<path fill="#000000" opacity="1.000000" stroke="none" 
	d="
M1519.235352,1055.950073 
	C1527.198486,1052.861450 1534.970947,1055.630371 1537.507568,1063.146484 
	C1540.382324,1071.664551 1540.625732,1080.406982 1536.038818,1088.666016 
	C1531.570312,1096.712524 1519.321045,1097.348389 1514.310547,1089.710693 
	C1508.053833,1080.173462 1508.175537,1062.625854 1519.235352,1055.950073 
z"/>
<path fill="#000000" opacity="1.000000" stroke="none" 
	d="
M1684.836792,1082.434326 
	C1682.967285,1087.159546 1681.490845,1091.551270 1676.715210,1093.788330 
	C1670.437012,1096.729248 1663.033203,1094.364624 1659.645630,1088.197876 
	C1655.224854,1080.150635 1655.479980,1071.836914 1658.243652,1063.471313 
	C1659.844482,1058.625854 1667.509766,1053.603027 1671.940063,1054.022339 
	C1678.053467,1054.600586 1684.009644,1061.341553 1685.086548,1068.094116 
	C1685.838623,1072.810303 1685.043579,1077.392334 1684.836792,1082.434326 
z"/>
<path fill="#000000" opacity="1.000000" stroke="none" 
	d="
M1904.172363,1087.495850 
	C1901.258179,1078.371094 1900.449463,1069.714355 1904.952026,1061.189697 
	C1909.249512,1053.053589 1921.546143,1051.637573 1927.125610,1060.439819 
	C1932.657104,1069.166504 1932.096436,1078.266846 1928.366455,1086.851807 
	C1924.257690,1096.308594 1911.642700,1099.126221 1904.172363,1087.495850 
z"/>
<path fill="#000000" opacity="1.000000" stroke="none" 
	d="
M1155.305908,1090.201538 
	C1147.123657,1098.406250 1136.240967,1095.955322 1132.747803,1085.208740 
	C1129.608521,1075.550903 1128.996216,1065.885254 1136.731079,1057.899536 
	C1142.713379,1051.723511 1153.287842,1053.598145 1156.862061,1060.981079 
	C1161.525024,1070.613037 1161.588623,1080.535156 1155.305908,1090.201538 
z"/>
<path fill="#000000" opacity="1.000000" stroke="none" 
	d="
M559.775879,1094.065918 
	C552.882385,1096.179565 548.163818,1094.456543 544.425659,1088.995605 
	C539.737183,1082.146362 539.509216,1067.408813 544.315308,1060.273926 
	C547.155151,1056.058228 551.586914,1053.846313 556.368591,1054.249878 
	C562.642700,1054.779541 567.190002,1058.789673 568.823669,1064.875122 
	C570.690125,1071.827637 570.754028,1078.987671 567.961548,1085.847290 
	C566.459473,1089.537231 564.151672,1092.602783 559.775879,1094.065918 
z"/>
<path fill="#000000" opacity="1.000000" stroke="none" 
	d="
M484.498474,1083.025879 
	C488.734833,1077.601929 494.913605,1078.445801 500.224396,1077.046875 
	C503.014923,1076.311768 505.929901,1076.049072 508.782684,1075.574097 
	C510.667877,1087.579346 506.130493,1091.751953 497.872406,1094.533813 
	C495.003296,1095.500244 491.848022,1095.455688 488.779053,1094.312744 
	C483.199768,1092.235107 483.703308,1087.801758 484.498474,1083.025879 
z"/>
<path fill="#000000" opacity="1.000000" stroke="none" 
	d="
M1453.988281,1084.120728 
	C1455.545776,1079.276245 1459.546631,1078.784180 1463.297607,1078.022461 
	C1468.320557,1077.002563 1473.598633,1077.321533 1478.342651,1074.908325 
	C1482.103149,1089.413696 1470.999268,1095.523804 1461.175415,1094.967285 
	C1455.726807,1094.658569 1452.240234,1089.441040 1453.988281,1084.120728 
z"/>
<path fill="#000000" opacity="1.000000" stroke="none" 
	d="
M1200.357666,1055.005859 
	C1208.183838,1051.384644 1217.266602,1057.282104 1218.987915,1066.396606 
	C1219.435059,1068.764404 1218.153564,1069.055664 1216.167236,1069.035889 
	C1207.688110,1068.951416 1199.207520,1068.999878 1190.554077,1068.999878 
	C1191.167725,1062.527954 1193.961304,1057.711548 1200.357666,1055.005859 
z"/>
<path fill="#000000" opacity="1.000000" stroke="none" 
	d="
M1961.178467,1088.502686 
	C1961.568481,1081.238647 1965.242065,1078.841064 1971.047119,1078.117432 
	C1976.347778,1077.456543 1981.547241,1076.459351 1986.754517,1075.460693 
	C1987.714233,1087.442749 1985.509888,1091.065308 1975.171875,1094.350708 
	C1968.783936,1096.380859 1964.866333,1094.828735 1961.178467,1088.502686 
z"/>
<path fill="#000000" opacity="1.000000" stroke="none" 
	d="
M1740.770508,1058.281250 
	C1747.052490,1069.000000 1747.052490,1069.000122 1735.378662,1069.000000 
	C1729.737671,1069.000000 1724.096313,1068.957764 1718.456055,1069.023315 
	C1716.636475,1069.044434 1715.544434,1068.732666 1716.163330,1066.554932 
	C1718.911743,1056.883423 1729.889893,1048.791626 1740.770508,1058.281250 
z"/>
<path fill="#000000" opacity="1.000000" stroke="none" 
	d="
M1057.779053,1077.980591 
	C1061.981567,1077.128418 1065.743774,1076.293091 1069.506348,1075.457642 
	C1072.715332,1089.210571 1064.291626,1093.764038 1054.635498,1094.910156 
	C1049.399902,1095.531616 1044.572754,1091.831543 1044.010132,1087.684937 
	C1043.562988,1084.388184 1047.513550,1079.998169 1051.978394,1078.429688 
	C1053.802124,1077.788940 1055.563843,1078.218262 1057.779053,1077.980591 
z"/>
<path fill="#000000" opacity="1.000000" stroke="none" 
	d="
M284.001495,1065.148682 
	C284.451508,1067.219116 286.182770,1069.183716 282.288666,1069.068237 
	C274.509521,1068.837646 266.715515,1068.869263 258.934143,1069.059082 
	C255.441071,1069.144287 255.542587,1067.463135 256.380920,1065.113037 
	C258.875671,1058.119385 264.096191,1053.824463 270.435883,1054.050659 
	C278.105286,1054.324219 282.091003,1057.647705 284.001495,1065.148682 
z"/>
<path fill="#000000" opacity="1.000000" stroke="none" 
	d="
M1598.443115,1065.935303 
	C1599.260742,1073.566528 1599.413452,1080.752197 1596.142700,1087.741577 
	C1593.945801,1092.436035 1590.651367,1094.677734 1585.734497,1094.993408 
	C1579.859131,1095.370850 1574.792236,1094.139893 1571.783813,1088.335327 
	C1567.351440,1079.783447 1567.940918,1071.014160 1571.304810,1062.529541 
	C1574.133789,1055.393921 1578.818848,1053.289185 1586.815796,1054.000488 
	C1592.317261,1054.489746 1596.418335,1058.707764 1598.443115,1065.935303 
z"/>
<path fill="#000000" opacity="1.000000" stroke="none" 
	d="
M2128.037598,1086.804932 
	C2125.113281,1093.690430 2119.826416,1095.849976 2113.215088,1094.942261 
	C2107.196045,1094.115967 2103.834961,1090.458740 2101.789307,1084.578491 
	C2099.111816,1076.883179 2099.960205,1069.875000 2102.828125,1062.527344 
	C2105.455322,1055.796387 2111.246338,1053.206177 2119.120850,1054.013794 
	C2123.328857,1054.445312 2128.819336,1060.167114 2129.993652,1065.107788 
	C2131.734375,1072.430908 2131.254395,1079.537109 2128.037598,1086.804932 
z"/>
<path fill="#000000" opacity="1.000000" stroke="none" 
	d="
M800.053833,1094.451904 
	C785.740723,1095.811890 776.723938,1084.992554 780.342712,1071.304565 
	C781.153564,1068.237427 781.448120,1065.059326 782.918823,1062.111938 
	C786.112183,1055.712280 790.295654,1053.156616 798.543335,1054.092773 
	C804.082642,1054.721558 807.525696,1058.212769 809.284729,1063.682861 
	C812.064819,1072.327759 811.353149,1080.493652 807.091797,1088.449219 
	C805.580994,1091.269775 803.908203,1093.804077 800.053833,1094.451904 
z"/>
<path fill="#000000" opacity="1.000000" stroke="none" 
	d="
M923.743530,1059.250488 
	C930.115356,1069.384033 928.461792,1079.335205 923.924011,1089.040527 
	C920.365173,1096.652222 906.584900,1098.152710 900.446777,1088.854126 
	C894.634766,1080.049561 896.085266,1064.857544 903.038269,1057.482422 
	C908.278015,1051.924683 918.630981,1052.749268 923.743530,1059.250488 
z"/>
<path fill="currentColor" opacity="1.000000" stroke="none" 
	d="
M2274.024658,139.978622 
	C2275.226807,144.546326 2276.407715,148.697357 2277.590088,152.853806 
	C2273.252441,152.853806 2268.356689,154.129913 2264.780029,152.504196 
	C2261.004883,150.788361 2261.987549,145.116592 2260.651123,141.255844 
	C2259.678223,138.443710 2259.019043,135.469025 2255.591309,134.171036 
	C2247.831543,131.232742 2246.000000,132.360474 2246.000000,140.532440 
	C2246.000000,142.528915 2246.000000,144.525375 2246.000000,146.521851 
	C2245.999756,153.000015 2245.999756,153.000015 2239.489502,153.000000 
	C2233.000000,152.999985 2233.000000,152.999985 2233.000000,146.500702 
	C2233.000000,133.190918 2233.092041,119.880058 2232.936523,106.572090 
	C2232.896484,103.142265 2234.004150,102.276970 2237.439209,101.834915 
	C2244.026855,100.987122 2250.586426,100.940880 2257.168213,101.041702 
	C2260.711670,101.095993 2264.295898,101.618820 2267.487305,103.228287 
	C2271.347656,105.175209 2274.688477,107.764526 2274.995117,112.634338 
	C2275.356689,118.382126 2275.325439,124.033524 2268.767334,126.635323 
	C2266.024170,127.723557 2266.993164,128.688782 2268.542725,129.905151 
	C2271.684326,132.371719 2273.350342,135.682846 2274.024658,139.978622 
z"/>

</svg>